<svg width="204" height="194" viewBox="0 0 204 194" fill="none" xmlns="http://www.w3.org/2000/svg">
<path d="M183.202 53.6531C183.18 53.6531 183.16 53.6451 183.145 53.6309C183.13 53.6167 183.122 53.5974 183.122 53.5773C181.97 51.7125 180.321 50.1701 178.341 49.1063L108.216 11.5945C106.316 10.5857 104.176 10.0562 102 10.0562C99.8241 10.0562 97.6843 10.5857 95.7844 11.5945L25.6594 49.1063C23.6794 50.1701 22.03 51.7125 20.8782 53.5773C20.8782 53.5974 20.8698 53.6167 20.8548 53.6309C20.8399 53.6451 20.8196 53.6531 20.7985 53.6531V53.8047C19.6968 55.5703 19.1185 57.5868 19.1251 59.6398V134.36C19.1291 136.52 19.7361 138.641 20.8842 140.505C22.0323 142.369 23.6801 143.91 25.6594 144.97L95.7844 182.481C97.5499 183.397 99.5127 183.916 101.522 183.997H102.638C104.596 183.914 106.507 183.395 108.216 182.481L178.341 144.97C180.32 143.91 181.968 142.369 183.116 140.505C184.264 138.641 184.871 136.52 184.875 134.36V59.6398C184.887 57.5383 184.309 55.4718 183.202 53.6531ZM102 22.1281L165.511 56.0781L102.717 90.0281L38.5688 56.0781L102 22.1281ZM31.8751 66.3844L96.3422 100.562L95.7047 168.537L31.8751 134.36V66.3844ZM108.455 168.462L109.092 100.562L172.125 66.4602V134.36L108.455 168.462Z" fill="#FFA500"/>
</svg>
