<svg width="166" height="174" viewBox="0 0 166 174" fill="none" xmlns="http://www.w3.org/2000/svg">
<path d="M164.202 43.6531C164.18 43.6531 164.16 43.6451 164.145 43.6309C164.13 43.6167 164.122 43.5974 164.122 43.5773C162.97 41.7125 161.321 40.1701 159.341 39.1063L89.2157 1.59454C87.3158 0.58575 85.176 0.0561523 83.0001 0.0561523C80.8241 0.0561523 78.6843 0.58575 76.7844 1.59454L6.65943 39.1063C4.67937 40.1701 3.02998 41.7125 1.87818 43.5773C1.87818 43.5974 1.86978 43.6167 1.85484 43.6309C1.8399 43.6451 1.81963 43.6531 1.79849 43.6531V43.8047C0.696794 45.5703 0.11851 47.5868 0.125055 49.6398V124.36C0.129084 126.52 0.736145 128.641 1.8842 130.505C3.03225 132.369 4.68013 133.91 6.65943 134.97L76.7844 172.481C78.5499 173.397 80.5127 173.916 82.5219 173.997H83.6376C85.5961 173.914 87.5069 173.395 89.2157 172.481L159.341 134.97C161.32 133.91 162.968 132.369 164.116 130.505C165.264 128.641 165.871 126.52 165.875 124.36V49.6398C165.887 47.5383 165.309 45.4718 164.202 43.6531ZM83.0001 12.1281L146.511 46.0781L83.7172 80.0281L19.5688 46.0781L83.0001 12.1281ZM12.8751 56.3844L77.3422 90.5617L76.7047 158.537L12.8751 124.36V56.3844ZM89.4548 158.462L90.0922 90.5617L153.125 56.4602V124.36L89.4548 158.462Z" fill="#E8985C"/>
</svg>
